# xmcd
#
# Track frame offsets:
#	150
#	20283
#	41161
#	64799
#	81824
#	103603
#	126913
#	148693
#	167579
#	187470
#	208433
#
# Disc length: 3048 seconds
# Revision: 0
# Processed by: cddbd v1.5.2PL0 Copyright (c) Steve Scherf et al.
# Submitted via: dBpowerAMP V12.0
#
DISCID=a60be60b
DTITLE=Walsh, Matt - A Part Of Me /w Acoustic Quartet
DYEAR=2011
DGENRE=Blues
TTITLE0=Victor Jara
TTITLE1=Harlem Street
TTITLE2=A Part Of Me
TTITLE3=Papa Joe
TTITLE4=I Think Of You
TTITLE5=Rolling Down The Highway
TTITLE6=Wait And See
TTITLE7=Gold
TTITLE8=Storm Over New Orleans
TTITLE9=The Fruit Picker
TTITLE10=Waiting Till Sunrise
EXTD=
EXTT0=
EXTT1=
EXTT2=
EXTT3=
EXTT4=
EXTT5=
EXTT6=
EXTT7=
EXTT8=
EXTT9=
EXTT10=
PLAYORDER=
